<svg width="24" height="24" viewBox="0 0 24 24" fill="none" xmlns="http://www.w3.org/2000/svg">
<path fill-rule="evenodd" clip-rule="evenodd" d="M18.4278 18.3732C17.4863 18.3732 16.6009 18.007 15.9348 17.3408L12.3217 13.7277C12.0697 13.4757 11.6291 13.4748 11.3761 13.7277L7.77636 17.3277C7.11022 17.9937 6.22481 18.36 5.28324 18.36H4.84973L9.42166 22.932C10.8457 24.356 13.1541 24.356 14.5781 22.932L19.1368 18.3732H18.4278ZM13.5029 21.8578C13.1021 22.2577 12.5686 22.479 12.0004 22.479H11.9994C11.4312 22.479 10.8967 22.2577 10.4969 21.8578L7.83144 19.1923C8.20063 18.976 8.5424 18.7119 8.85149 18.4028L11.8495 15.4048L14.8607 18.416C15.2187 18.7752 15.6196 19.073 16.0551 19.3046L13.5029 21.8578V21.8578ZM14.5782 1.06801C13.1542 -0.356003 10.8458 -0.356003 9.42176 1.06801L4.84987 5.64H5.28339C6.22486 5.64 7.11036 6.00728 7.77645 6.67236L11.3762 10.2722C11.6373 10.5344 12.0617 10.5334 12.3218 10.2722L15.9349 6.65909C16.601 5.99397 17.4864 5.62674 18.4279 5.62674H19.1369L14.5782 1.06801ZM14.8608 5.58496L11.8496 8.59623L8.85055 5.59715C8.54146 5.2881 8.20077 5.0249 7.83154 4.80868L10.4969 2.14214C11.3262 1.31489 12.6758 1.31382 13.503 2.14214L16.0552 4.69541C15.6196 4.928 15.2187 5.22589 14.8607 5.58496H14.8608Z" fill="black"/>
<path fill-rule="evenodd" clip-rule="evenodd" d="M22.9321 9.42199L20.1952 6.68512H18.4275C17.7787 6.68512 17.1432 6.9493 16.6842 7.40833L13.0711 11.0215C12.7335 11.3581 12.2918 11.5265 11.849 11.5265C11.4063 11.5265 10.9637 11.3581 10.627 11.0215L7.02723 7.42165C6.56817 6.96154 5.93274 6.69839 5.28291 6.69839H3.79161L1.06798 9.42199C-0.355995 10.846 -0.355995 13.1545 1.06798 14.5785L3.79156 17.3012L5.28287 17.3022C5.93264 17.3022 6.56817 17.038 7.02723 16.5789L10.627 12.9801C11.2798 12.3262 12.4182 12.3273 13.0711 12.9791L16.6841 16.5922C17.1431 17.0512 17.7786 17.3144 18.4274 17.3144H20.1951L22.932 14.5785C24.356 13.1545 24.356 10.846 22.932 9.42199H22.9321ZM5.95205 15.5038C5.77564 15.6813 5.53284 15.7812 5.28291 15.7812H4.42104L2.14307 13.5044C1.31378 12.675 1.31378 11.3255 2.14307 10.4972L4.42095 8.21832H5.28287C5.53279 8.21832 5.77559 8.31931 5.95304 8.49577L9.45696 11.9998L5.95205 15.5038ZM21.8569 13.5044L19.5669 15.7955H18.4274C18.1785 15.7955 17.9348 15.6945 17.7593 15.518L14.2421 11.9998L17.7593 8.48251C17.9348 8.30604 18.1785 8.20505 18.4275 8.20505H19.5669L21.8569 10.4972C22.2588 10.8981 22.4791 11.4316 22.4791 11.9998C22.4791 12.569 22.2588 13.1025 21.8569 13.5044H21.8569Z" fill="black"/>
</svg>
